<svg xmlns="http://www.w3.org/2000/svg" viewBox="0 0 1600 900"><rect width="1600" height="900" fill="#0e1417"/><line x1="40" x2="1560" y1="80" y2="80" stroke="#1d272c" stroke-width="1"/><line x1="40" x2="1560" y1="160" y2="160" stroke="#1d272c" stroke-width="1"/><line x1="40" x2="1560" y1="240" y2="240" stroke="#1d272c" stroke-width="1"/><line x1="40" x2="1560" y1="320" y2="320" stroke="#1d272c" stroke-width="1"/><line x1="40" x2="1560" y1="400" y2="400" stroke="#1d272c" stroke-width="1"/><line x1="40" x2="1560" y1="480" y2="480" stroke="#1d272c" stroke-width="1"/><line x1="40" x2="1560" y1="560" y2="560" stroke="#1d272c" stroke-width="1"/><line x1="40" x2="1560" y1="640" y2="640" stroke="#1d272c" stroke-width="1"/><line x1="40" x2="1560" y1="720" y2="720" stroke="#1d272c" stroke-width="1"/><path d="M40.0,70.7 L43.8,71.6 L47.6,69.6 L51.4,67.5 L55.2,68.3 L59.0,67.6 L62.9,71.5 L66.7,75.1 L70.5,70.2 L74.3,69.4 L78.1,72.3 L81.9,72.5 L85.7,70.5 L89.5,66.9 L93.3,67.5 L97.1,69.7 L101.0,63.6 L104.8,66.1 L108.6,59.0 L112.4,59.9 L116.2,55.1 L120.0,59.7 L123.8,59.9 L127.6,65.0 L131.4,68.3 L135.2,64.8 L139.0,59.3 L142.9,60.4 L146.7,60.9 L150.5,63.9 L154.3,59.7 L158.1,61.0 L161.9,59.8 L165.7,60.1 L169.5,64.1 L173.3,61.3 L177.1,70.4 L181.0,72.4 L184.8,69.3 L188.6,65.0 L192.4,68.1 L196.2,70.7 L200.0,68.4 L203.8,80.8 L207.6,79.1 L211.4,75.5 L215.2,76.3 L219.0,75.6 L222.9,75.4 L226.7,82.9 L230.5,82.7 L234.3,75.4 L238.1,76.5 L241.9,77.2 L245.7,76.1 L249.5,81.4 L253.3,78.9 L257.1,80.9 L261.0,79.6 L264.8,75.2 L268.6,75.2 L272.4,73.5 L276.2,73.8 L280.0,71.2 L283.8,72.7 L287.6,74.9 L291.4,78.4 L295.2,78.6 L299.0,71.3 L302.9,71.9 L306.7,74.9 L310.5,68.7 L314.3,72.7 L318.1,75.9 L321.9,80.5 L325.7,79.3 L329.5,76.0 L333.3,75.5 L337.1,76.7 L341.0,81.1 L344.8,76.1 L348.6,75.6 L352.4,77.1 L356.2,75.6 L360.0,74.6 L363.8,72.4 L367.6,75.4 L371.4,75.9 L375.2,80.7 L379.0,79.9 L382.9,78.0 L386.7,79.0 L390.5,76.7 L394.3,79.3 L398.1,76.4 L401.9,75.8 L405.7,70.2 L409.5,72.1 L413.3,66.0 L417.1,64.6 L421.0,69.9 L424.8,70.3 L428.6,75.1 L432.4,80.9 L436.2,73.1 L440.0,72.7 L443.8,75.3 L447.6,76.3 L451.4,74.5 L455.2,74.5 L459.0,76.8 L462.9,75.6 L466.7,70.9 L470.5,72.6 L474.3,72.5 L478.1,69.8 L481.9,72.7 L485.7,71.0 L489.5,75.5 L493.3,73.7 L497.1,72.1 L501.0,69.4 L504.8,68.7 L508.6,63.2 L512.4,65.4 L516.2,69.2 L520.0,64.3 L523.8,71.3 L527.6,66.8 L531.4,73.0 L535.2,70.9 L539.0,75.1 L542.9,73.8 L546.7,70.4 L550.5,78.3 L554.3,79.4 L558.1,74.7 L561.9,72.8 L565.7,71.7 L569.5,70.0 L573.3,74.8 L577.1,72.2 L581.0,71.7 L584.8,68.9 L588.6,67.6 L592.4,67.2 L596.2,73.7 L600.0,73.2 L603.8,73.4 L607.6,71.8 L611.4,68.9 L615.2,71.6 L619.0,69.3 L622.9,71.6 L626.7,66.1 L630.5,68.1 L634.3,64.3 L638.1,73.2 L641.9,79.8 L645.7,71.2 L649.5,67.9 L653.3,73.2 L657.1,79.3 L661.0,73.3 L664.8,67.6 L668.6,66.6 L672.4,67.8 L676.2,83.1 L680.0,81.2 L683.8,72.3 L687.6,70.4 L691.4,72.1 L695.2,67.3 L699.0,66.4 L702.9,61.1 L706.7,65.4 L710.5,70.9 L714.3,73.5 L718.1,77.0 L721.9,77.8 L725.7,77.2 L729.5,79.8 L733.3,82.2 L737.1,78.3 L741.0,76.8 L744.8,78.4 L748.6,82.7 L752.4,82.6 L756.2,81.1 L760.0,77.8 L763.8,76.0 L767.6,83.0 L771.4,84.3 L775.2,81.9 L779.0,83.9 L782.9,85.2 L786.7,85.6 L790.5,85.1 L794.3,81.7 L798.1,85.3 L801.9,78.8 L805.7,83.6 L809.5,83.8 L813.3,85.0 L817.1,87.3 L821.0,84.0 L824.8,74.2 L828.6,71.1 L832.4,76.4 L836.2,71.9 L840.0,73.6 L843.8,74.6 L847.6,66.6 L851.4,64.7 L855.2,71.2 L859.0,71.5 L862.9,70.5 L866.7,70.4 L870.5,67.0 L874.3,64.8 L878.1,67.9 L881.9,66.0 L885.7,65.0 L889.5,71.3 L893.3,71.1 L897.1,71.7 L901.0,67.8 L904.8,67.9 L908.6,67.3 L912.4,68.4 L916.2,72.0 L920.0,71.1 L923.8,74.8 L927.6,76.7 L931.4,80.4 L935.2,72.0 L939.0,76.3 L942.9,74.0 L946.7,72.6 L950.5,68.7 L954.3,71.4 L958.1,75.2 L961.9,73.5 L965.7,73.3 L969.5,72.5 L973.3,75.2 L977.1,70.3 L981.0,62.7 L984.8,64.5 L988.6,60.5 L992.4,58.0 L996.2,67.5 L1000.0,75.0 L1003.8,72.7 L1007.6,69.5 L1011.4,71.4 L1015.2,78.0 L1019.0,76.9 L1022.9,76.7 L1026.7,77.0 L1030.5,77.9 L1034.3,80.4 L1038.1,80.0 L1041.9,79.4 L1045.7,77.9 L1049.5,81.2 L1053.3,78.1 L1057.1,81.7 L1061.0,76.2 L1064.8,77.3 L1068.6,76.1 L1072.4,75.2 L1076.2,84.3 L1080.0,80.8 L1083.8,70.9 L1087.6,75.7 L1091.4,74.9 L1095.2,70.0 L1099.0,75.5 L1102.9,80.1 L1106.7,79.7 L1110.5,78.2 L1114.3,75.8 L1118.1,77.8 L1121.9,77.0 L1125.7,82.5 L1129.5,83.2 L1133.3,87.5 L1137.1,76.7 L1141.0,75.0 L1144.8,77.9 L1148.6,83.5 L1152.4,81.4 L1156.2,77.9 L1160.0,89.9 L1163.8,93.5 L1167.6,93.3 L1171.4,86.4 L1175.2,89.1 L1179.0,90.0 L1182.9,91.2 L1186.7,86.5 L1190.5,84.9 L1194.3,84.2 L1198.1,81.7 L1201.9,89.4 L1205.7,87.6 L1209.5,85.5 L1213.3,81.4 L1217.1,75.9 L1221.0,79.0 L1224.8,81.2 L1228.6,78.8 L1232.4,78.3 L1236.2,78.0 L1240.0,77.6 L1243.8,73.3 L1247.6,76.4 L1251.4,76.5 L1255.2,81.3 L1259.0,78.5 L1262.9,82.6 L1266.7,85.4 L1270.5,80.1 L1274.3,78.6 L1278.1,80.5 L1281.9,80.0 L1285.7,77.9 L1289.5,82.8 L1293.3,87.0 L1297.1,80.7 L1301.0,78.9 L1304.8,76.5 L1308.6,79.2 L1312.4,75.4 L1316.2,76.8 L1320.0,83.8 L1323.8,80.3 L1327.6,86.3 L1331.4,88.5 L1335.2,85.3 L1339.0,86.1 L1342.9,88.7 L1346.7,81.9 L1350.5,78.6 L1354.3,76.4 L1358.1,80.7 L1361.9,85.4 L1365.7,83.2 L1369.5,76.8 L1373.3,75.8 L1377.1,77.0 L1381.0,79.4 L1384.8,78.7 L1388.6,79.9 L1392.4,80.1 L1396.2,78.5 L1400.0,79.2 L1403.8,80.1 L1407.6,79.8 L1411.4,82.2 L1415.2,85.6 L1419.0,81.3 L1422.9,77.1 L1426.7,71.3 L1430.5,74.5 L1434.3,68.4 L1438.1,70.1 L1441.9,77.2 L1445.7,77.5 L1449.5,74.1 L1453.3,69.6 L1457.1,72.9 L1461.0,73.9 L1464.8,79.0 L1468.6,83.7 L1472.4,77.4 L1476.2,72.6 L1480.0,70.7 L1483.8,73.4 L1487.6,73.0 L1491.4,70.8 L1495.2,73.9 L1499.0,72.5 L1502.9,79.0 L1506.7,80.0 L1510.5,78.7 L1514.3,74.2 L1518.1,75.3 L1521.9,73.7 L1525.7,73.3 L1529.5,72.0 L1533.3,67.0 L1537.1,64.3 L1541.0,73.6 L1544.8,72.2 L1548.6,73.2 L1552.4,74.1 L1556.2,66.3 L1560.0,68.0" fill="none" stroke="#5fd3d6" stroke-width="1.6" opacity="0.55"/><path d="M40.0,166.0 L43.8,163.2 L47.6,164.0 L51.4,163.5 L55.2,164.8 L59.0,163.5 L62.9,166.5 L66.7,163.6 L70.5,162.1 L74.3,159.9 L78.1,153.1 L81.9,155.7 L85.7,155.8 L89.5,156.5 L93.3,153.1 L97.1,161.4 L101.0,155.8 L104.8,148.5 L108.6,145.6 L112.4,150.1 L116.2,152.4 L120.0,152.2 L123.8,154.5 L127.6,153.0 L131.4,157.3 L135.2,155.8 L139.0,157.4 L142.9,160.8 L146.7,165.2 L150.5,154.7 L154.3,155.2 L158.1,155.3 L161.9,159.6 L165.7,154.0 L169.5,154.0 L173.3,151.1 L177.1,145.3 L181.0,144.1 L184.8,146.0 L188.6,142.5 L192.4,144.0 L196.2,148.3 L200.0,152.2 L203.8,152.8 L207.6,150.2 L211.4,154.9 L215.2,161.2 L219.0,161.7 L222.9,155.8 L226.7,152.1 L230.5,155.9 L234.3,154.3 L238.1,153.4 L241.9,158.1 L245.7,166.9 L249.5,164.8 L253.3,167.8 L257.1,163.9 L261.0,167.4 L264.8,163.2 L268.6,166.2 L272.4,175.2 L276.2,170.1 L280.0,164.7 L283.8,165.3 L287.6,167.1 L291.4,169.0 L295.2,162.6 L299.0,158.1 L302.9,163.0 L306.7,165.7 L310.5,168.1 L314.3,172.7 L318.1,170.8 L321.9,171.4 L325.7,166.8 L329.5,173.8 L333.3,178.8 L337.1,174.8 L341.0,172.0 L344.8,171.6 L348.6,175.1 L352.4,166.5 L356.2,167.6 L360.0,169.8 L363.8,170.1 L367.6,166.2 L371.4,167.3 L375.2,165.4 L379.0,165.9 L382.9,164.5 L386.7,161.4 L390.5,165.3 L394.3,168.2 L398.1,163.0 L401.9,165.3 L405.7,168.2 L409.5,164.0 L413.3,167.7 L417.1,166.8 L421.0,175.8 L424.8,182.0 L428.6,180.8 L432.4,173.2 L436.2,174.4 L440.0,172.2 L443.8,172.2 L447.6,175.2 L451.4,167.2 L455.2,173.0 L459.0,171.1 L462.9,174.5 L466.7,170.1 L470.5,166.5 L474.3,169.1 L478.1,170.4 L481.9,167.9 L485.7,167.8 L489.5,163.1 L493.3,158.6 L497.1,168.2 L501.0,169.2 L504.8,167.4 L508.6,167.3 L512.4,169.3 L516.2,164.2 L520.0,162.5 L523.8,164.7 L527.6,168.2 L531.4,161.4 L535.2,167.7 L539.0,162.4 L542.9,161.1 L546.7,168.2 L550.5,164.2 L554.3,160.2 L558.1,164.0 L561.9,169.5 L565.7,171.0 L569.5,166.4 L573.3,168.4 L577.1,168.5 L581.0,163.6 L584.8,165.5 L588.6,164.0 L592.4,161.9 L596.2,161.2 L600.0,163.2 L603.8,162.9 L607.6,161.4 L611.4,162.0 L615.2,169.6 L619.0,170.5 L622.9,177.4 L626.7,177.3 L630.5,175.2 L634.3,177.3 L638.1,169.6 L641.9,173.0 L645.7,171.9 L649.5,177.8 L653.3,174.5 L657.1,157.2 L661.0,159.9 L664.8,167.9 L668.6,169.3 L672.4,166.9 L676.2,164.4 L680.0,167.9 L683.8,168.1 L687.6,165.4 L691.4,166.0 L695.2,154.7 L699.0,160.4 L702.9,156.9 L706.7,163.0 L710.5,157.8 L714.3,154.7 L718.1,158.5 L721.9,156.8 L725.7,154.5 L729.5,154.5 L733.3,159.4 L737.1,164.7 L741.0,166.5 L744.8,164.4 L748.6,167.2 L752.4,163.8 L756.2,163.1 L760.0,165.4 L763.8,166.2 L767.6,161.4 L771.4,160.5 L775.2,160.5 L779.0,160.7 L782.9,158.5 L786.7,163.9 L790.5,160.6 L794.3,162.1 L798.1,159.0 L801.9,162.7 L805.7,163.5 L809.5,162.7 L813.3,170.2 L817.1,166.5 L821.0,169.4 L824.8,165.2 L828.6,157.9 L832.4,157.0 L836.2,158.5 L840.0,156.3 L843.8,154.5 L847.6,150.9 L851.4,145.0 L855.2,147.5 L859.0,142.4 L862.9,149.3 L866.7,146.9 L870.5,146.4 L874.3,148.1 L878.1,148.4 L881.9,142.1 L885.7,139.9 L889.5,141.7 L893.3,140.0 L897.1,145.9 L901.0,155.1 L904.8,149.5 L908.6,153.5 L912.4,149.1 L916.2,154.2 L920.0,154.2 L923.8,156.1 L927.6,160.1 L931.4,164.0 L935.2,159.4 L939.0,157.3 L942.9,154.2 L946.7,158.4 L950.5,157.2 L954.3,160.0 L958.1,158.4 L961.9,161.5 L965.7,150.1 L969.5,154.0 L973.3,158.0 L977.1,153.8 L981.0,151.8 L984.8,152.8 L988.6,150.8 L992.4,157.3 L996.2,165.8 L1000.0,161.1 L1003.8,152.2 L1007.6,151.2 L1011.4,153.3 L1015.2,157.2 L1019.0,151.8 L1022.9,152.0 L1026.7,157.2 L1030.5,156.7 L1034.3,151.1 L1038.1,146.4 L1041.9,144.3 L1045.7,146.4 L1049.5,144.6 L1053.3,154.5 L1057.1,154.5 L1061.0,159.0 L1064.8,165.0 L1068.6,159.8 L1072.4,151.8 L1076.2,157.4 L1080.0,158.3 L1083.8,152.3 L1087.6,148.8 L1091.4,149.8 L1095.2,145.3 L1099.0,152.0 L1102.9,141.5 L1106.7,145.8 L1110.5,151.5 L1114.3,153.0 L1118.1,153.1 L1121.9,153.3 L1125.7,153.3 L1129.5,158.5 L1133.3,152.4 L1137.1,159.0 L1141.0,157.1 L1144.8,156.3 L1148.6,154.9 L1152.4,150.8 L1156.2,151.9 L1160.0,158.4 L1163.8,159.2 L1167.6,160.2 L1171.4,169.9 L1175.2,171.0 L1179.0,157.5 L1182.9,164.6 L1186.7,172.5 L1190.5,169.0 L1194.3,164.0 L1198.1,161.1 L1201.9,157.5 L1205.7,157.4 L1209.5,157.0 L1213.3,159.7 L1217.1,156.0 L1221.0,154.0 L1224.8,151.9 L1228.6,155.0 L1232.4,153.6 L1236.2,156.8 L1240.0,161.8 L1243.8,160.6 L1247.6,160.8 L1251.4,159.9 L1255.2,158.4 L1259.0,157.1 L1262.9,156.6 L1266.7,159.0 L1270.5,154.3 L1274.3,160.5 L1278.1,156.3 L1281.9,152.3 L1285.7,152.1 L1289.5,151.7 L1293.3,153.9 L1297.1,152.0 L1301.0,156.3 L1304.8,149.2 L1308.6,143.4 L1312.4,147.3 L1316.2,145.8 L1320.0,153.9 L1323.8,159.8 L1327.6,159.0 L1331.4,153.3 L1335.2,156.6 L1339.0,166.1 L1342.9,163.6 L1346.7,163.5 L1350.5,168.5 L1354.3,173.5 L1358.1,169.3 L1361.9,163.9 L1365.7,162.8 L1369.5,161.8 L1373.3,156.2 L1377.1,153.8 L1381.0,156.3 L1384.8,154.1 L1388.6,157.1 L1392.4,159.6 L1396.2,165.7 L1400.0,156.0 L1403.8,156.3 L1407.6,156.3 L1411.4,158.1 L1415.2,158.8 L1419.0,152.5 L1422.9,149.0 L1426.7,145.7 L1430.5,148.3 L1434.3,153.5 L1438.1,152.1 L1441.9,148.6 L1445.7,150.4 L1449.5,152.3 L1453.3,153.3 L1457.1,149.5 L1461.0,148.7 L1464.8,143.6 L1468.6,146.5 L1472.4,154.5 L1476.2,144.3 L1480.0,149.2 L1483.8,152.2 L1487.6,150.5 L1491.4,149.6 L1495.2,152.1 L1499.0,152.9 L1502.9,151.9 L1506.7,147.0 L1510.5,152.3 L1514.3,152.2 L1518.1,154.9 L1521.9,159.6 L1525.7,162.8 L1529.5,164.4 L1533.3,161.6 L1537.1,166.6 L1541.0,169.1 L1544.8,169.7 L1548.6,169.6 L1552.4,164.2 L1556.2,163.4 L1560.0,166.5" fill="none" stroke="#11abb0" stroke-width="1.6" opacity="0.60"/><path d="M40.0,223.3 L43.8,227.6 L47.6,229.9 L51.4,230.2 L55.2,227.4 L59.0,231.9 L62.9,227.5 L66.7,231.0 L70.5,235.9 L74.3,230.2 L78.1,230.6 L81.9,235.0 L85.7,230.9 L89.5,230.3 L93.3,231.5 L97.1,232.2 L101.0,221.8 L104.8,224.3 L108.6,222.9 L112.4,221.8 L116.2,223.3 L120.0,226.9 L123.8,232.0 L127.6,230.5 L131.4,232.6 L135.2,233.9 L139.0,230.3 L142.9,235.1 L146.7,238.8 L150.5,235.7 L154.3,232.9 L158.1,234.1 L161.9,229.2 L165.7,231.9 L169.5,234.5 L173.3,228.2 L177.1,230.7 L181.0,235.6 L184.8,233.7 L188.6,236.0 L192.4,232.3 L196.2,232.4 L200.0,232.8 L203.8,239.4 L207.6,232.5 L211.4,231.3 L215.2,232.2 L219.0,235.0 L222.9,239.9 L226.7,241.9 L230.5,248.2 L234.3,242.5 L238.1,243.8 L241.9,240.0 L245.7,237.5 L249.5,231.1 L253.3,231.7 L257.1,231.5 L261.0,228.1 L264.8,223.4 L268.6,231.8 L272.4,229.8 L276.2,228.8 L280.0,229.2 L283.8,229.2 L287.6,230.3 L291.4,225.1 L295.2,226.0 L299.0,230.2 L302.9,230.2 L306.7,228.3 L310.5,227.4 L314.3,227.0 L318.1,230.5 L321.9,234.3 L325.7,229.3 L329.5,236.1 L333.3,234.0 L337.1,228.9 L341.0,229.6 L344.8,221.3 L348.6,218.4 L352.4,219.7 L356.2,222.8 L360.0,223.5 L363.8,223.3 L367.6,223.8 L371.4,218.0 L375.2,224.3 L379.0,219.8 L382.9,221.5 L386.7,222.4 L390.5,220.2 L394.3,220.0 L398.1,222.5 L401.9,227.4 L405.7,230.8 L409.5,230.6 L413.3,225.8 L417.1,225.7 L421.0,226.5 L424.8,230.4 L428.6,225.6 L432.4,235.1 L436.2,232.2 L440.0,232.1 L443.8,237.3 L447.6,241.1 L451.4,240.6 L455.2,243.0 L459.0,241.4 L462.9,244.8 L466.7,244.8 L470.5,240.9 L474.3,243.9 L478.1,239.5 L481.9,237.2 L485.7,233.4 L489.5,234.9 L493.3,237.3 L497.1,231.9 L501.0,236.8 L504.8,236.2 L508.6,234.1 L512.4,226.5 L516.2,232.3 L520.0,234.9 L523.8,231.0 L527.6,231.7 L531.4,225.7 L535.2,234.0 L539.0,232.5 L542.9,235.9 L546.7,229.7 L550.5,236.6 L554.3,235.9 L558.1,238.6 L561.9,234.0 L565.7,236.1 L569.5,243.9 L573.3,235.7 L577.1,234.7 L581.0,236.7 L584.8,236.0 L588.6,242.9 L592.4,244.2 L596.2,236.6 L600.0,235.1 L603.8,243.9 L607.6,245.9 L611.4,244.7 L615.2,245.9 L619.0,238.9 L622.9,239.9 L626.7,236.0 L630.5,237.6 L634.3,244.5 L638.1,244.6 L641.9,249.5 L645.7,244.9 L649.5,239.7 L653.3,246.9 L657.1,247.0 L661.0,239.8 L664.8,233.8 L668.6,238.5 L672.4,244.5 L676.2,237.0 L680.0,238.3 L683.8,242.7 L687.6,241.1 L691.4,234.0 L695.2,234.2 L699.0,233.3 L702.9,237.3 L706.7,239.1 L710.5,243.2 L714.3,240.4 L718.1,233.5 L721.9,238.6 L725.7,242.0 L729.5,241.9 L733.3,242.5 L737.1,236.1 L741.0,232.6 L744.8,236.0 L748.6,228.9 L752.4,225.9 L756.2,234.5 L760.0,230.3 L763.8,229.6 L767.6,225.8 L771.4,225.5 L775.2,226.7 L779.0,230.2 L782.9,232.2 L786.7,225.9 L790.5,234.0 L794.3,230.2 L798.1,231.3 L801.9,237.7 L805.7,236.4 L809.5,234.0 L813.3,243.8 L817.1,238.3 L821.0,241.4 L824.8,243.3 L828.6,246.8 L832.4,242.6 L836.2,245.7 L840.0,241.9 L843.8,246.3 L847.6,241.8 L851.4,243.9 L855.2,251.4 L859.0,247.8 L862.9,247.6 L866.7,253.2 L870.5,247.0 L874.3,242.2 L878.1,245.1 L881.9,240.5 L885.7,246.8 L889.5,246.8 L893.3,240.4 L897.1,238.9 L901.0,240.6 L904.8,239.4 L908.6,236.2 L912.4,238.8 L916.2,231.6 L920.0,235.5 L923.8,236.7 L927.6,237.9 L931.4,239.4 L935.2,235.9 L939.0,240.7 L942.9,238.9 L946.7,236.7 L950.5,234.5 L954.3,236.2 L958.1,241.8 L961.9,240.4 L965.7,245.3 L969.5,250.6 L973.3,252.4 L977.1,253.7 L981.0,247.7 L984.8,245.6 L988.6,252.3 L992.4,252.3 L996.2,254.8 L1000.0,252.8 L1003.8,256.3 L1007.6,255.9 L1011.4,255.2 L1015.2,254.2 L1019.0,253.5 L1022.9,252.7 L1026.7,253.0 L1030.5,254.7 L1034.3,251.1 L1038.1,256.5 L1041.9,252.3 L1045.7,254.7 L1049.5,252.0 L1053.3,251.7 L1057.1,256.5 L1061.0,248.5 L1064.8,243.6 L1068.6,244.8 L1072.4,247.5 L1076.2,255.0 L1080.0,251.1 L1083.8,251.1 L1087.6,245.9 L1091.4,249.3 L1095.2,253.8 L1099.0,255.7 L1102.9,248.2 L1106.7,249.0 L1110.5,246.8 L1114.3,241.4 L1118.1,242.4 L1121.9,241.9 L1125.7,238.4 L1129.5,249.6 L1133.3,247.5 L1137.1,243.1 L1141.0,239.5 L1144.8,251.1 L1148.6,249.8 L1152.4,252.1 L1156.2,253.7 L1160.0,248.6 L1163.8,250.2 L1167.6,247.7 L1171.4,248.3 L1175.2,248.8 L1179.0,249.1 L1182.9,250.5 L1186.7,248.9 L1190.5,246.1 L1194.3,245.3 L1198.1,245.3 L1201.9,241.4 L1205.7,242.9 L1209.5,244.9 L1213.3,244.7 L1217.1,246.5 L1221.0,246.9 L1224.8,256.2 L1228.6,255.7 L1232.4,253.3 L1236.2,252.5 L1240.0,258.6 L1243.8,253.1 L1247.6,250.6 L1251.4,251.4 L1255.2,252.1 L1259.0,254.9 L1262.9,251.5 L1266.7,255.5 L1270.5,246.9 L1274.3,248.8 L1278.1,245.0 L1281.9,251.6 L1285.7,245.8 L1289.5,245.4 L1293.3,248.2 L1297.1,247.3 L1301.0,238.9 L1304.8,238.4 L1308.6,235.3 L1312.4,239.1 L1316.2,238.7 L1320.0,237.2 L1323.8,235.9 L1327.6,236.5 L1331.4,236.3 L1335.2,240.8 L1339.0,242.7 L1342.9,232.6 L1346.7,236.2 L1350.5,236.4 L1354.3,238.3 L1358.1,234.5 L1361.9,235.9 L1365.7,234.5 L1369.5,239.7 L1373.3,238.8 L1377.1,237.9 L1381.0,239.1 L1384.8,236.6 L1388.6,233.2 L1392.4,239.8 L1396.2,240.2 L1400.0,239.6 L1403.8,243.3 L1407.6,243.2 L1411.4,235.7 L1415.2,236.4 L1419.0,243.7 L1422.9,242.6 L1426.7,234.1 L1430.5,230.6 L1434.3,231.2 L1438.1,230.8 L1441.9,227.9 L1445.7,232.0 L1449.5,229.0 L1453.3,230.3 L1457.1,237.4 L1461.0,234.5 L1464.8,237.0 L1468.6,240.3 L1472.4,241.1 L1476.2,237.9 L1480.0,238.4 L1483.8,237.4 L1487.6,245.1 L1491.4,242.1 L1495.2,236.5 L1499.0,239.8 L1502.9,243.1 L1506.7,243.7 L1510.5,247.8 L1514.3,245.2 L1518.1,238.0 L1521.9,236.5 L1525.7,232.6 L1529.5,236.9 L1533.3,238.1 L1537.1,245.2 L1541.0,235.3 L1544.8,225.9 L1548.6,228.5 L1552.4,229.9 L1556.2,225.4 L1560.0,225.1" fill="none" stroke="#11abb0" stroke-width="1.6" opacity="0.65"/><path d="M40.0,314.7 L43.8,320.6 L47.6,318.4 L51.4,319.7 L55.2,317.3 L59.0,318.9 L62.9,315.7 L66.7,318.3 L70.5,320.8 L74.3,318.5 L78.1,315.3 L81.9,313.1 L85.7,318.2 L89.5,320.2 L93.3,318.8 L97.1,317.7 L101.0,324.0 L104.8,330.1 L108.6,320.9 L112.4,319.6 L116.2,322.0 L120.0,313.2 L123.8,321.5 L127.6,315.0 L131.4,319.3 L135.2,311.9 L139.0,309.3 L142.9,310.3 L146.7,318.2 L150.5,317.2 L154.3,318.3 L158.1,308.4 L161.9,311.5 L165.7,320.7 L169.5,330.4 L173.3,334.9 L177.1,331.6 L181.0,339.5 L184.8,336.7 L188.6,340.4 L192.4,326.1 L196.2,314.7 L200.0,316.5 L203.8,326.3 L207.6,329.6 L211.4,326.7 L215.2,314.6 L219.0,306.7 L222.9,306.3 L226.7,307.1 L230.5,316.8 L234.3,318.9 L238.1,312.5 L241.9,322.8 L245.7,327.0 L249.5,325.5 L253.3,333.4 L257.1,332.9 L261.0,322.6 L264.8,328.0 L268.6,326.5 L272.4,325.0 L276.2,324.0 L280.0,315.7 L283.8,313.5 L287.6,311.3 L291.4,311.5 L295.2,312.9 L299.0,308.3 L302.9,310.4 L306.7,316.9 L310.5,315.9 L314.3,315.8 L318.1,307.9 L321.9,311.2 L325.7,314.0 L329.5,317.2 L333.3,317.4 L337.1,323.4 L341.0,321.5 L344.8,322.0 L348.6,323.2 L352.4,325.9 L356.2,323.5 L360.0,329.2 L363.8,327.9 L367.6,326.6 L371.4,326.8 L375.2,329.3 L379.0,331.9 L382.9,331.6 L386.7,329.5 L390.5,330.1 L394.3,327.3 L398.1,329.4 L401.9,322.8 L405.7,315.1 L409.5,325.7 L413.3,321.7 L417.1,316.3 L421.0,319.0 L424.8,318.9 L428.6,329.2 L432.4,323.3 L436.2,315.2 L440.0,321.2 L443.8,319.6 L447.6,325.5 L451.4,313.7 L455.2,307.8 L459.0,315.4 L462.9,315.1 L466.7,314.2 L470.5,309.7 L474.3,320.5 L478.1,325.9 L481.9,315.8 L485.7,325.6 L489.5,323.4 L493.3,333.2 L497.1,327.5 L501.0,324.4 L504.8,328.2 L508.6,325.3 L512.4,320.5 L516.2,323.2 L520.0,317.8 L523.8,314.0 L527.6,326.2 L531.4,318.6 L535.2,316.0 L539.0,317.4 L542.9,310.1 L546.7,310.2 L550.5,314.2 L554.3,316.3 L558.1,320.6 L561.9,325.0 L565.7,319.9 L569.5,323.0 L573.3,323.6 L577.1,318.4 L581.0,321.9 L584.8,319.1 L588.6,326.1 L592.4,322.5 L596.2,316.6 L600.0,313.5 L603.8,316.1 L607.6,317.5 L611.4,318.9 L615.2,321.3 L619.0,321.1 L622.9,330.1 L626.7,323.1 L630.5,319.0 L634.3,319.3 L638.1,320.7 L641.9,321.4 L645.7,327.6 L649.5,331.2 L653.3,333.8 L657.1,339.6 L661.0,341.1 L664.8,339.5 L668.6,335.6 L672.4,344.1 L676.2,335.3 L680.0,336.5 L683.8,336.6 L687.6,342.5 L691.4,346.5 L695.2,332.4 L699.0,320.3 L702.9,330.4 L706.7,327.7 L710.5,324.2 L714.3,313.5 L718.1,327.2 L721.9,329.9 L725.7,327.5 L729.5,328.4 L733.3,333.0 L737.1,329.1 L741.0,330.9 L744.8,324.2 L748.6,324.9 L752.4,328.7 L756.2,325.0 L760.0,318.0 L763.8,322.7 L767.6,320.7 L771.4,318.2 L775.2,321.6 L779.0,317.9 L782.9,313.1 L786.7,316.2 L790.5,326.1 L794.3,316.9 L798.1,322.3 L801.9,325.1 L805.7,324.3 L809.5,317.7 L813.3,320.4 L817.1,323.3 L821.0,325.5 L824.8,320.4 L828.6,319.3 L832.4,328.0 L836.2,329.7 L840.0,326.3 L843.8,322.5 L847.6,325.3 L851.4,324.8 L855.2,325.7 L859.0,318.3 L862.9,321.7 L866.7,320.6 L870.5,317.5 L874.3,322.2 L878.1,322.2 L881.9,321.1 L885.7,323.1 L889.5,317.7 L893.3,322.9 L897.1,326.2 L901.0,326.9 L904.8,328.7 L908.6,320.2 L912.4,319.3 L916.2,327.2 L920.0,331.5 L923.8,338.2 L927.6,332.8 L931.4,326.9 L935.2,331.4 L939.0,326.0 L942.9,326.1 L946.7,341.4 L950.5,336.4 L954.3,337.3 L958.1,338.1 L961.9,341.8 L965.7,336.7 L969.5,337.2 L973.3,328.3 L977.1,327.3 L981.0,338.5 L984.8,340.3 L988.6,336.5 L992.4,334.5 L996.2,333.4 L1000.0,331.5 L1003.8,339.3 L1007.6,337.4 L1011.4,336.1 L1015.2,335.8 L1019.0,337.5 L1022.9,335.4 L1026.7,334.1 L1030.5,327.5 L1034.3,333.7 L1038.1,340.5 L1041.9,330.5 L1045.7,331.0 L1049.5,333.6 L1053.3,333.6 L1057.1,331.0 L1061.0,322.4 L1064.8,327.0 L1068.6,320.3 L1072.4,323.4 L1076.2,330.8 L1080.0,328.0 L1083.8,329.9 L1087.6,336.8 L1091.4,328.6 L1095.2,324.4 L1099.0,312.0 L1102.9,310.3 L1106.7,309.8 L1110.5,316.2 L1114.3,315.0 L1118.1,321.8 L1121.9,319.5 L1125.7,327.5 L1129.5,322.3 L1133.3,326.4 L1137.1,321.8 L1141.0,310.2 L1144.8,312.8 L1148.6,315.6 L1152.4,326.7 L1156.2,324.5 L1160.0,324.5 L1163.8,330.0 L1167.6,332.5 L1171.4,312.3 L1175.2,308.6 L1179.0,309.2 L1182.9,309.2 L1186.7,312.8 L1190.5,317.8 L1194.3,316.6 L1198.1,315.9 L1201.9,322.1 L1205.7,315.4 L1209.5,318.7 L1213.3,315.2 L1217.1,312.4 L1221.0,315.5 L1224.8,314.0 L1228.6,324.1 L1232.4,318.2 L1236.2,323.9 L1240.0,313.5 L1243.8,315.9 L1247.6,309.2 L1251.4,308.0 L1255.2,314.2 L1259.0,316.2 L1262.9,310.7 L1266.7,317.9 L1270.5,312.4 L1274.3,314.9 L1278.1,316.4 L1281.9,315.7 L1285.7,308.4 L1289.5,319.0 L1293.3,315.5 L1297.1,309.4 L1301.0,304.8 L1304.8,301.3 L1308.6,303.3 L1312.4,310.7 L1316.2,308.7 L1320.0,306.2 L1323.8,310.1 L1327.6,318.1 L1331.4,312.4 L1335.2,311.7 L1339.0,318.4 L1342.9,315.2 L1346.7,311.5 L1350.5,306.9 L1354.3,302.2 L1358.1,303.3 L1361.9,306.8 L1365.7,309.3 L1369.5,312.4 L1373.3,313.5 L1377.1,311.7 L1381.0,309.7 L1384.8,303.1 L1388.6,298.0 L1392.4,303.2 L1396.2,302.9 L1400.0,304.5 L1403.8,306.2 L1407.6,303.5 L1411.4,305.1 L1415.2,310.5 L1419.0,312.8 L1422.9,312.0 L1426.7,316.7 L1430.5,315.3 L1434.3,313.8 L1438.1,320.2 L1441.9,328.1 L1445.7,322.0 L1449.5,328.8 L1453.3,331.6 L1457.1,331.1 L1461.0,323.8 L1464.8,331.7 L1468.6,325.3 L1472.4,322.1 L1476.2,322.1 L1480.0,324.7 L1483.8,323.0 L1487.6,322.4 L1491.4,326.5 L1495.2,319.2 L1499.0,318.1 L1502.9,325.5 L1506.7,327.0 L1510.5,327.8 L1514.3,320.8 L1518.1,327.2 L1521.9,326.6 L1525.7,329.2 L1529.5,317.5 L1533.3,319.6 L1537.1,319.0 L1541.0,310.7 L1544.8,314.4 L1548.6,321.3 L1552.4,316.4 L1556.2,315.5 L1560.0,320.4" fill="none" stroke="#5fd3d6" stroke-width="1.6" opacity="0.70"/><path d="M40.0,412.9 L43.8,414.8 L47.6,420.7 L51.4,422.0 L55.2,412.4 L59.0,416.2 L62.9,415.3 L66.7,414.2 L70.5,414.0 L74.3,413.2 L78.1,417.6 L81.9,415.1 L85.7,413.9 L89.5,415.8 L93.3,414.7 L97.1,411.9 L101.0,411.2 L104.8,412.8 L108.6,408.5 L112.4,404.3 L116.2,400.7 L120.0,400.7 L123.8,397.3 L127.6,401.9 L131.4,402.1 L135.2,397.7 L139.0,400.4 L142.9,401.2 L146.7,399.3 L150.5,397.6 L154.3,403.5 L158.1,396.7 L161.9,392.5 L165.7,394.6 L169.5,398.6 L173.3,405.1 L177.1,403.5 L181.0,399.9 L184.8,392.7 L188.6,395.0 L192.4,395.2 L196.2,398.8 L200.0,394.7 L203.8,400.0 L207.6,398.1 L211.4,396.8 L215.2,396.7 L219.0,395.5 L222.9,392.8 L226.7,395.7 L230.5,402.2 L234.3,403.8 L238.1,402.8 L241.9,406.6 L245.7,402.4 L249.5,406.8 L253.3,403.4 L257.1,401.1 L261.0,402.1 L264.8,396.7 L268.6,394.3 L272.4,393.7 L276.2,398.8 L280.0,399.2 L283.8,399.2 L287.6,399.7 L291.4,404.6 L295.2,399.9 L299.0,399.3 L302.9,405.5 L306.7,406.2 L310.5,401.4 L314.3,394.3 L318.1,397.3 L321.9,401.5 L325.7,401.3 L329.5,404.4 L333.3,396.9 L337.1,401.0 L341.0,398.8 L344.8,403.4 L348.6,400.1 L352.4,401.1 L356.2,395.0 L360.0,391.0 L363.8,391.5 L367.6,393.4 L371.4,394.3 L375.2,401.8 L379.0,403.2 L382.9,399.1 L386.7,394.6 L390.5,396.3 L394.3,396.0 L398.1,401.9 L401.9,399.1 L405.7,397.7 L409.5,393.1 L413.3,387.3 L417.1,389.9 L421.0,390.3 L424.8,395.1 L428.6,395.1 L432.4,392.7 L436.2,394.7 L440.0,399.8 L443.8,392.7 L447.6,391.8 L451.4,393.8 L455.2,393.3 L459.0,395.0 L462.9,399.2 L466.7,402.0 L470.5,392.4 L474.3,396.2 L478.1,397.2 L481.9,397.1 L485.7,396.9 L489.5,397.3 L493.3,400.9 L497.1,397.2 L501.0,397.7 L504.8,398.4 L508.6,398.8 L512.4,398.7 L516.2,401.7 L520.0,398.9 L523.8,398.3 L527.6,396.4 L531.4,392.7 L535.2,392.4 L539.0,392.3 L542.9,395.9 L546.7,394.0 L550.5,393.6 L554.3,398.4 L558.1,399.6 L561.9,395.3 L565.7,405.0 L569.5,402.0 L573.3,401.8 L577.1,405.1 L581.0,402.4 L584.8,402.6 L588.6,408.8 L592.4,401.2 L596.2,402.3 L600.0,404.4 L603.8,397.7 L607.6,400.0 L611.4,404.6 L615.2,411.8 L619.0,403.5 L622.9,404.8 L626.7,405.2 L630.5,398.2 L634.3,395.4 L638.1,400.0 L641.9,404.6 L645.7,406.5 L649.5,408.5 L653.3,410.0 L657.1,408.7 L661.0,409.8 L664.8,401.1 L668.6,401.3 L672.4,400.7 L676.2,400.5 L680.0,401.1 L683.8,401.6 L687.6,410.4 L691.4,414.3 L695.2,405.8 L699.0,407.4 L702.9,406.0 L706.7,407.4 L710.5,403.4 L714.3,401.1 L718.1,402.3 L721.9,402.2 L725.7,399.3 L729.5,402.4 L733.3,400.1 L737.1,403.2 L741.0,403.3 L744.8,405.2 L748.6,402.7 L752.4,403.9 L756.2,398.4 L760.0,401.2 L763.8,399.1 L767.6,399.3 L771.4,398.9 L775.2,399.1 L779.0,390.5 L782.9,394.6 L786.7,390.8 L790.5,396.1 L794.3,387.6 L798.1,388.5 L801.9,388.8 L805.7,397.7 L809.5,391.2 L813.3,393.8 L817.1,392.0 L821.0,388.8 L824.8,394.2 L828.6,398.5 L832.4,397.8 L836.2,400.8 L840.0,397.8 L843.8,398.5 L847.6,398.4 L851.4,401.7 L855.2,406.5 L859.0,402.0 L862.9,399.8 L866.7,396.4 L870.5,396.1 L874.3,401.3 L878.1,394.0 L881.9,393.7 L885.7,396.2 L889.5,396.9 L893.3,402.2 L897.1,391.1 L901.0,397.7 L904.8,399.3 L908.6,394.2 L912.4,395.7 L916.2,400.2 L920.0,403.4 L923.8,395.8 L927.6,393.9 L931.4,402.0 L935.2,404.2 L939.0,397.7 L942.9,392.8 L946.7,402.8 L950.5,400.4 L954.3,403.3 L958.1,400.1 L961.9,398.4 L965.7,399.0 L969.5,404.7 L973.3,403.4 L977.1,392.2 L981.0,395.1 L984.8,402.8 L988.6,396.7 L992.4,393.0 L996.2,396.6 L1000.0,396.9 L1003.8,396.8 L1007.6,395.9 L1011.4,396.3 L1015.2,396.6 L1019.0,398.8 L1022.9,396.5 L1026.7,398.5 L1030.5,400.8 L1034.3,405.9 L1038.1,404.1 L1041.9,402.7 L1045.7,404.8 L1049.5,405.3 L1053.3,408.2 L1057.1,407.7 L1061.0,411.1 L1064.8,409.1 L1068.6,404.5 L1072.4,403.0 L1076.2,406.0 L1080.0,402.8 L1083.8,397.9 L1087.6,391.3 L1091.4,390.3 L1095.2,397.0 L1099.0,401.2 L1102.9,400.7 L1106.7,394.5 L1110.5,398.1 L1114.3,397.0 L1118.1,399.9 L1121.9,400.0 L1125.7,392.0 L1129.5,389.5 L1133.3,382.2 L1137.1,385.2 L1141.0,388.0 L1144.8,394.9 L1148.6,398.7 L1152.4,397.9 L1156.2,397.6 L1160.0,393.7 L1163.8,397.9 L1167.6,397.1 L1171.4,396.9 L1175.2,395.5 L1179.0,390.4 L1182.9,396.8 L1186.7,396.9 L1190.5,397.4 L1194.3,398.8 L1198.1,400.3 L1201.9,392.4 L1205.7,390.4 L1209.5,384.5 L1213.3,390.1 L1217.1,388.7 L1221.0,384.6 L1224.8,392.2 L1228.6,394.1 L1232.4,390.4 L1236.2,390.8 L1240.0,390.3 L1243.8,394.8 L1247.6,389.8 L1251.4,394.4 L1255.2,401.8 L1259.0,397.4 L1262.9,397.3 L1266.7,394.6 L1270.5,391.3 L1274.3,394.6 L1278.1,396.0 L1281.9,392.8 L1285.7,397.0 L1289.5,400.4 L1293.3,398.4 L1297.1,389.6 L1301.0,389.4 L1304.8,389.2 L1308.6,397.5 L1312.4,397.8 L1316.2,396.9 L1320.0,391.5 L1323.8,390.0 L1327.6,393.7 L1331.4,394.0 L1335.2,391.7 L1339.0,394.7 L1342.9,396.3 L1346.7,394.1 L1350.5,388.9 L1354.3,385.5 L1358.1,391.3 L1361.9,393.8 L1365.7,393.1 L1369.5,392.7 L1373.3,393.0 L1377.1,397.2 L1381.0,395.8 L1384.8,395.4 L1388.6,392.1 L1392.4,393.1 L1396.2,395.3 L1400.0,392.3 L1403.8,392.3 L1407.6,397.0 L1411.4,403.0 L1415.2,402.1 L1419.0,405.2 L1422.9,400.6 L1426.7,398.6 L1430.5,395.8 L1434.3,399.5 L1438.1,406.7 L1441.9,405.3 L1445.7,406.5 L1449.5,406.3 L1453.3,403.9 L1457.1,403.1 L1461.0,404.4 L1464.8,406.3 L1468.6,405.9 L1472.4,405.4 L1476.2,403.4 L1480.0,400.1 L1483.8,400.6 L1487.6,399.6 L1491.4,404.2 L1495.2,396.9 L1499.0,403.4 L1502.9,411.9 L1506.7,404.7 L1510.5,401.9 L1514.3,406.3 L1518.1,410.9 L1521.9,407.5 L1525.7,409.7 L1529.5,409.5 L1533.3,411.2 L1537.1,420.8 L1541.0,411.3 L1544.8,407.7 L1548.6,408.0 L1552.4,411.1 L1556.2,412.5 L1560.0,414.0" fill="none" stroke="#11abb0" stroke-width="1.6" opacity="0.75"/><path d="M40.0,480.1 L43.8,480.9 L47.6,476.8 L51.4,480.4 L55.2,476.4 L59.0,474.3 L62.9,475.4 L66.7,473.1 L70.5,476.5 L74.3,477.8 L78.1,477.2 L81.9,478.4 L85.7,476.6 L89.5,476.1 L93.3,473.1 L97.1,475.2 L101.0,473.5 L104.8,474.3 L108.6,475.8 L112.4,475.8 L116.2,470.9 L120.0,471.2 L123.8,477.5 L127.6,482.4 L131.4,484.5 L135.2,483.8 L139.0,483.7 L142.9,481.1 L146.7,481.0 L150.5,478.6 L154.3,477.8 L158.1,481.2 L161.9,485.1 L165.7,486.0 L169.5,482.2 L173.3,483.2 L177.1,484.5 L181.0,487.1 L184.8,487.0 L188.6,486.1 L192.4,482.6 L196.2,478.8 L200.0,484.5 L203.8,485.1 L207.6,486.9 L211.4,487.5 L215.2,492.5 L219.0,485.5 L222.9,484.9 L226.7,485.5 L230.5,484.3 L234.3,487.6 L238.1,492.4 L241.9,489.7 L245.7,488.7 L249.5,487.4 L253.3,487.1 L257.1,488.5 L261.0,486.6 L264.8,485.2 L268.6,486.8 L272.4,488.8 L276.2,488.1 L280.0,488.2 L283.8,483.5 L287.6,490.9 L291.4,494.4 L295.2,491.5 L299.0,486.3 L302.9,484.1 L306.7,485.6 L310.5,483.4 L314.3,486.6 L318.1,484.9 L321.9,488.0 L325.7,487.8 L329.5,480.2 L333.3,483.6 L337.1,481.6 L341.0,480.0 L344.8,482.2 L348.6,484.6 L352.4,487.8 L356.2,484.0 L360.0,490.5 L363.8,493.9 L367.6,491.0 L371.4,490.1 L375.2,488.1 L379.0,485.9 L382.9,489.9 L386.7,491.1 L390.5,493.1 L394.3,497.3 L398.1,493.3 L401.9,491.6 L405.7,492.2 L409.5,484.8 L413.3,484.0 L417.1,485.7 L421.0,486.3 L424.8,489.8 L428.6,489.5 L432.4,494.5 L436.2,494.7 L440.0,492.3 L443.8,489.3 L447.6,491.0 L451.4,490.8 L455.2,486.8 L459.0,489.7 L462.9,491.1 L466.7,490.7 L470.5,493.6 L474.3,492.0 L478.1,486.8 L481.9,487.4 L485.7,485.6 L489.5,488.1 L493.3,486.1 L497.1,489.9 L501.0,489.6 L504.8,490.4 L508.6,487.5 L512.4,485.2 L516.2,492.0 L520.0,489.6 L523.8,492.6 L527.6,491.1 L531.4,491.8 L535.2,493.8 L539.0,490.5 L542.9,490.6 L546.7,484.2 L550.5,487.6 L554.3,485.3 L558.1,484.8 L561.9,484.7 L565.7,485.5 L569.5,487.1 L573.3,480.0 L577.1,482.5 L581.0,481.8 L584.8,484.3 L588.6,481.6 L592.4,482.6 L596.2,482.8 L600.0,484.6 L603.8,485.2 L607.6,482.5 L611.4,482.4 L615.2,479.1 L619.0,479.1 L622.9,478.3 L626.7,474.8 L630.5,478.0 L634.3,472.8 L638.1,470.2 L641.9,471.2 L645.7,475.0 L649.5,480.3 L653.3,480.9 L657.1,478.1 L661.0,478.9 L664.8,477.2 L668.6,478.1 L672.4,477.8 L676.2,486.7 L680.0,477.8 L683.8,482.9 L687.6,482.7 L691.4,480.2 L695.2,476.3 L699.0,480.5 L702.9,484.4 L706.7,485.0 L710.5,482.5 L714.3,484.5 L718.1,484.7 L721.9,485.7 L725.7,485.9 L729.5,481.7 L733.3,479.3 L737.1,484.3 L741.0,488.6 L744.8,486.3 L748.6,485.5 L752.4,488.1 L756.2,480.6 L760.0,482.6 L763.8,479.5 L767.6,480.0 L771.4,480.4 L775.2,482.1 L779.0,476.2 L782.9,475.1 L786.7,473.0 L790.5,477.0 L794.3,475.8 L798.1,476.9 L801.9,474.0 L805.7,475.7 L809.5,479.0 L813.3,476.9 L817.1,478.0 L821.0,477.3 L824.8,474.1 L828.6,471.4 L832.4,476.3 L836.2,475.0 L840.0,474.6 L843.8,466.9 L847.6,465.8 L851.4,465.3 L855.2,469.5 L859.0,475.2 L862.9,475.2 L866.7,474.0 L870.5,474.4 L874.3,475.3 L878.1,472.9 L881.9,473.5 L885.7,471.7 L889.5,466.3 L893.3,470.2 L897.1,474.3 L901.0,470.6 L904.8,470.0 L908.6,468.6 L912.4,468.8 L916.2,471.5 L920.0,467.4 L923.8,463.2 L927.6,458.0 L931.4,462.4 L935.2,460.3 L939.0,461.8 L942.9,468.8 L946.7,469.3 L950.5,464.4 L954.3,470.1 L958.1,469.7 L961.9,466.8 L965.7,468.6 L969.5,463.1 L973.3,462.7 L977.1,462.4 L981.0,464.1 L984.8,468.4 L988.6,464.2 L992.4,464.2 L996.2,465.7 L1000.0,469.0 L1003.8,469.1 L1007.6,471.5 L1011.4,468.1 L1015.2,466.6 L1019.0,468.8 L1022.9,470.7 L1026.7,469.7 L1030.5,473.6 L1034.3,477.2 L1038.1,472.5 L1041.9,473.5 L1045.7,475.8 L1049.5,471.7 L1053.3,470.5 L1057.1,470.8 L1061.0,473.8 L1064.8,473.6 L1068.6,471.8 L1072.4,473.1 L1076.2,477.2 L1080.0,476.9 L1083.8,471.4 L1087.6,472.6 L1091.4,473.3 L1095.2,472.3 L1099.0,470.1 L1102.9,469.4 L1106.7,472.1 L1110.5,468.9 L1114.3,470.1 L1118.1,470.0 L1121.9,474.9 L1125.7,470.3 L1129.5,468.4 L1133.3,465.2 L1137.1,469.6 L1141.0,473.2 L1144.8,472.3 L1148.6,471.5 L1152.4,472.8 L1156.2,474.1 L1160.0,471.1 L1163.8,470.6 L1167.6,472.9 L1171.4,477.1 L1175.2,476.4 L1179.0,475.6 L1182.9,476.5 L1186.7,476.3 L1190.5,476.2 L1194.3,476.9 L1198.1,475.2 L1201.9,474.9 L1205.7,477.2 L1209.5,476.9 L1213.3,479.3 L1217.1,480.8 L1221.0,479.8 L1224.8,475.8 L1228.6,473.4 L1232.4,476.2 L1236.2,477.5 L1240.0,480.3 L1243.8,477.5 L1247.6,477.9 L1251.4,480.0 L1255.2,478.0 L1259.0,479.5 L1262.9,484.4 L1266.7,484.3 L1270.5,481.7 L1274.3,479.4 L1278.1,476.3 L1281.9,478.8 L1285.7,477.9 L1289.5,477.5 L1293.3,475.7 L1297.1,476.4 L1301.0,476.3 L1304.8,477.7 L1308.6,479.7 L1312.4,475.9 L1316.2,470.0 L1320.0,470.0 L1323.8,468.9 L1327.6,471.3 L1331.4,475.1 L1335.2,475.1 L1339.0,473.0 L1342.9,474.0 L1346.7,471.3 L1350.5,469.4 L1354.3,469.7 L1358.1,472.6 L1361.9,478.3 L1365.7,474.4 L1369.5,480.3 L1373.3,481.3 L1377.1,477.9 L1381.0,477.5 L1384.8,476.5 L1388.6,478.3 L1392.4,480.4 L1396.2,480.0 L1400.0,482.5 L1403.8,483.0 L1407.6,480.8 L1411.4,479.9 L1415.2,478.6 L1419.0,478.4 L1422.9,475.3 L1426.7,478.1 L1430.5,477.7 L1434.3,476.0 L1438.1,481.3 L1441.9,474.4 L1445.7,473.3 L1449.5,474.6 L1453.3,469.7 L1457.1,471.4 L1461.0,470.7 L1464.8,472.9 L1468.6,476.5 L1472.4,479.5 L1476.2,482.6 L1480.0,483.0 L1483.8,483.9 L1487.6,482.3 L1491.4,479.9 L1495.2,482.6 L1499.0,479.4 L1502.9,479.5 L1506.7,484.5 L1510.5,483.3 L1514.3,481.6 L1518.1,482.3 L1521.9,481.9 L1525.7,475.8 L1529.5,476.7 L1533.3,474.5 L1537.1,477.3 L1541.0,477.2 L1544.8,481.6 L1548.6,479.8 L1552.4,476.3 L1556.2,477.2 L1560.0,475.4" fill="none" stroke="#11abb0" stroke-width="1.6" opacity="0.80"/><path d="M40.0,571.0 L43.8,569.1 L47.6,566.5 L51.4,564.2 L55.2,559.6 L59.0,560.7 L62.9,565.1 L66.7,564.4 L70.5,568.4 L74.3,559.1 L78.1,550.5 L81.9,557.3 L85.7,561.3 L89.5,562.5 L93.3,560.3 L97.1,558.5 L101.0,565.4 L104.8,560.1 L108.6,562.2 L112.4,560.0 L116.2,557.0 L120.0,566.0 L123.8,553.8 L127.6,559.5 L131.4,564.3 L135.2,560.9 L139.0,562.9 L142.9,557.8 L146.7,555.6 L150.5,567.2 L154.3,560.4 L158.1,562.7 L161.9,560.3 L165.7,551.6 L169.5,556.1 L173.3,547.4 L177.1,556.0 L181.0,549.4 L184.8,558.9 L188.6,555.8 L192.4,556.7 L196.2,558.3 L200.0,552.7 L203.8,556.1 L207.6,556.6 L211.4,559.3 L215.2,574.0 L219.0,569.4 L222.9,579.3 L226.7,576.5 L230.5,576.7 L234.3,568.1 L238.1,570.6 L241.9,575.9 L245.7,567.4 L249.5,564.6 L253.3,561.3 L257.1,548.4 L261.0,555.0 L264.8,562.0 L268.6,566.6 L272.4,566.7 L276.2,574.3 L280.0,575.9 L283.8,571.4 L287.6,577.7 L291.4,579.4 L295.2,573.6 L299.0,568.5 L302.9,575.1 L306.7,570.0 L310.5,568.5 L314.3,569.9 L318.1,569.2 L321.9,575.2 L325.7,575.7 L329.5,576.8 L333.3,573.6 L337.1,568.2 L341.0,570.4 L344.8,574.1 L348.6,572.3 L352.4,582.0 L356.2,571.9 L360.0,569.4 L363.8,574.9 L367.6,573.5 L371.4,569.9 L375.2,568.7 L379.0,570.9 L382.9,572.4 L386.7,571.3 L390.5,567.1 L394.3,568.4 L398.1,568.9 L401.9,565.1 L405.7,551.1 L409.5,556.4 L413.3,558.7 L417.1,562.1 L421.0,565.5 L424.8,569.1 L428.6,568.7 L432.4,566.1 L436.2,567.4 L440.0,572.5 L443.8,565.3 L447.6,567.6 L451.4,571.4 L455.2,565.4 L459.0,556.7 L462.9,563.3 L466.7,562.3 L470.5,563.9 L474.3,568.3 L478.1,566.6 L481.9,564.2 L485.7,567.4 L489.5,565.8 L493.3,563.8 L497.1,563.5 L501.0,562.1 L504.8,559.0 L508.6,557.5 L512.4,558.0 L516.2,554.2 L520.0,554.0 L523.8,562.4 L527.6,558.5 L531.4,558.3 L535.2,557.9 L539.0,558.1 L542.9,558.0 L546.7,557.3 L550.5,554.6 L554.3,558.7 L558.1,554.4 L561.9,557.8 L565.7,547.8 L569.5,549.7 L573.3,557.4 L577.1,555.0 L581.0,552.2 L584.8,554.0 L588.6,551.3 L592.4,553.8 L596.2,547.5 L600.0,551.0 L603.8,551.9 L607.6,554.1 L611.4,556.2 L615.2,551.5 L619.0,559.2 L622.9,552.8 L626.7,547.9 L630.5,551.8 L634.3,558.0 L638.1,554.9 L641.9,547.7 L645.7,550.0 L649.5,546.2 L653.3,561.5 L657.1,565.2 L661.0,570.8 L664.8,555.1 L668.6,545.2 L672.4,556.3 L676.2,564.0 L680.0,561.0 L683.8,563.2 L687.6,553.3 L691.4,561.7 L695.2,563.4 L699.0,563.4 L702.9,572.1 L706.7,568.9 L710.5,572.2 L714.3,564.7 L718.1,563.1 L721.9,566.9 L725.7,568.4 L729.5,566.7 L733.3,568.2 L737.1,566.1 L741.0,566.1 L744.8,560.0 L748.6,561.6 L752.4,561.8 L756.2,557.8 L760.0,558.9 L763.8,560.2 L767.6,564.7 L771.4,561.4 L775.2,565.8 L779.0,569.9 L782.9,565.1 L786.7,558.2 L790.5,564.0 L794.3,568.0 L798.1,564.9 L801.9,569.0 L805.7,567.6 L809.5,565.6 L813.3,562.1 L817.1,560.4 L821.0,561.1 L824.8,562.6 L828.6,564.3 L832.4,563.4 L836.2,560.3 L840.0,560.6 L843.8,559.9 L847.6,552.4 L851.4,554.0 L855.2,554.7 L859.0,557.2 L862.9,557.7 L866.7,557.9 L870.5,557.0 L874.3,562.5 L878.1,561.1 L881.9,555.2 L885.7,560.1 L889.5,559.4 L893.3,568.7 L897.1,563.4 L901.0,563.3 L904.8,565.8 L908.6,566.2 L912.4,568.7 L916.2,575.1 L920.0,572.4 L923.8,574.7 L927.6,575.3 L931.4,569.6 L935.2,577.8 L939.0,575.9 L942.9,575.3 L946.7,569.6 L950.5,574.4 L954.3,573.7 L958.1,572.0 L961.9,581.0 L965.7,575.9 L969.5,572.1 L973.3,573.6 L977.1,576.6 L981.0,577.6 L984.8,575.7 L988.6,577.0 L992.4,575.3 L996.2,564.6 L1000.0,564.4 L1003.8,563.3 L1007.6,567.6 L1011.4,572.6 L1015.2,569.2 L1019.0,562.4 L1022.9,564.3 L1026.7,568.1 L1030.5,563.1 L1034.3,563.6 L1038.1,564.1 L1041.9,557.6 L1045.7,566.6 L1049.5,564.7 L1053.3,563.5 L1057.1,556.6 L1061.0,557.0 L1064.8,560.6 L1068.6,562.0 L1072.4,565.3 L1076.2,564.2 L1080.0,571.7 L1083.8,569.7 L1087.6,563.6 L1091.4,563.9 L1095.2,576.7 L1099.0,572.2 L1102.9,575.4 L1106.7,571.4 L1110.5,565.1 L1114.3,570.9 L1118.1,573.5 L1121.9,563.4 L1125.7,561.8 L1129.5,562.0 L1133.3,569.3 L1137.1,562.2 L1141.0,547.3 L1144.8,543.6 L1148.6,546.8 L1152.4,558.4 L1156.2,547.2 L1160.0,547.5 L1163.8,559.6 L1167.6,561.2 L1171.4,562.7 L1175.2,564.0 L1179.0,555.7 L1182.9,559.0 L1186.7,555.9 L1190.5,563.5 L1194.3,568.2 L1198.1,570.2 L1201.9,568.0 L1205.7,564.4 L1209.5,566.4 L1213.3,564.8 L1217.1,557.6 L1221.0,562.7 L1224.8,562.5 L1228.6,556.3 L1232.4,563.5 L1236.2,560.2 L1240.0,559.4 L1243.8,554.8 L1247.6,557.1 L1251.4,557.4 L1255.2,554.6 L1259.0,553.7 L1262.9,547.0 L1266.7,556.2 L1270.5,547.9 L1274.3,543.0 L1278.1,547.2 L1281.9,550.0 L1285.7,555.3 L1289.5,552.8 L1293.3,556.8 L1297.1,556.1 L1301.0,567.0 L1304.8,564.0 L1308.6,566.1 L1312.4,556.2 L1316.2,558.6 L1320.0,553.5 L1323.8,557.0 L1327.6,555.7 L1331.4,546.2 L1335.2,545.4 L1339.0,544.5 L1342.9,543.6 L1346.7,546.3 L1350.5,546.4 L1354.3,546.3 L1358.1,553.0 L1361.9,555.5 L1365.7,550.3 L1369.5,553.3 L1373.3,556.8 L1377.1,557.3 L1381.0,557.9 L1384.8,564.7 L1388.6,567.1 L1392.4,567.2 L1396.2,566.1 L1400.0,573.9 L1403.8,573.0 L1407.6,564.7 L1411.4,564.5 L1415.2,567.6 L1419.0,561.1 L1422.9,563.5 L1426.7,561.8 L1430.5,558.6 L1434.3,558.7 L1438.1,554.9 L1441.9,558.1 L1445.7,557.6 L1449.5,574.0 L1453.3,575.2 L1457.1,574.3 L1461.0,571.6 L1464.8,573.7 L1468.6,574.5 L1472.4,572.9 L1476.2,570.1 L1480.0,562.7 L1483.8,564.7 L1487.6,560.5 L1491.4,557.2 L1495.2,558.0 L1499.0,564.7 L1502.9,567.4 L1506.7,561.7 L1510.5,571.9 L1514.3,571.2 L1518.1,563.4 L1521.9,562.3 L1525.7,564.5 L1529.5,567.0 L1533.3,558.8 L1537.1,557.2 L1541.0,561.1 L1544.8,554.9 L1548.6,563.1 L1552.4,568.8 L1556.2,567.6 L1560.0,569.6" fill="none" stroke="#5fd3d6" stroke-width="1.6" opacity="0.85"/><path d="M40.0,633.4 L43.8,632.5 L47.6,630.4 L51.4,628.1 L55.2,631.2 L59.0,633.7 L62.9,631.0 L66.7,630.7 L70.5,625.5 L74.3,629.7 L78.1,630.3 L81.9,627.2 L85.7,626.6 L89.5,632.8 L93.3,631.4 L97.1,635.5 L101.0,634.5 L104.8,637.4 L108.6,634.5 L112.4,632.1 L116.2,635.9 L120.0,638.6 L123.8,640.8 L127.6,639.9 L131.4,640.0 L135.2,645.7 L139.0,646.3 L142.9,646.1 L146.7,645.0 L150.5,642.7 L154.3,643.6 L158.1,643.4 L161.9,645.2 L165.7,642.6 L169.5,645.8 L173.3,648.8 L177.1,643.1 L181.0,639.4 L184.8,637.4 L188.6,636.6 L192.4,637.9 L196.2,635.0 L200.0,634.4 L203.8,638.7 L207.6,633.9 L211.4,635.5 L215.2,637.8 L219.0,642.5 L222.9,645.1 L226.7,640.5 L230.5,636.3 L234.3,633.6 L238.1,634.2 L241.9,634.6 L245.7,628.8 L249.5,633.5 L253.3,634.7 L257.1,637.6 L261.0,635.2 L264.8,635.5 L268.6,632.9 L272.4,633.1 L276.2,631.0 L280.0,637.6 L283.8,642.6 L287.6,639.9 L291.4,639.4 L295.2,636.7 L299.0,642.0 L302.9,637.6 L306.7,640.7 L310.5,638.9 L314.3,636.4 L318.1,641.1 L321.9,639.2 L325.7,639.1 L329.5,639.4 L333.3,637.6 L337.1,636.3 L341.0,637.6 L344.8,635.0 L348.6,634.9 L352.4,632.0 L356.2,629.2 L360.0,631.2 L363.8,632.3 L367.6,634.5 L371.4,636.5 L375.2,629.1 L379.0,631.3 L382.9,625.4 L386.7,627.7 L390.5,629.1 L394.3,625.2 L398.1,627.6 L401.9,634.9 L405.7,637.2 L409.5,637.9 L413.3,638.5 L417.1,646.7 L421.0,642.1 L424.8,641.0 L428.6,648.2 L432.4,646.4 L436.2,644.3 L440.0,648.1 L443.8,646.1 L447.6,646.8 L451.4,645.2 L455.2,642.2 L459.0,646.9 L462.9,644.9 L466.7,641.5 L470.5,642.8 L474.3,647.7 L478.1,645.6 L481.9,647.0 L485.7,649.2 L489.5,647.9 L493.3,644.8 L497.1,651.5 L501.0,654.6 L504.8,656.0 L508.6,658.5 L512.4,656.0 L516.2,657.5 L520.0,659.6 L523.8,656.0 L527.6,661.3 L531.4,662.0 L535.2,659.6 L539.0,661.2 L542.9,657.3 L546.7,652.2 L550.5,656.2 L554.3,654.4 L558.1,654.0 L561.9,653.7 L565.7,656.1 L569.5,652.8 L573.3,648.4 L577.1,650.8 L581.0,650.4 L584.8,646.0 L588.6,645.9 L592.4,647.2 L596.2,647.3 L600.0,652.0 L603.8,657.3 L607.6,661.4 L611.4,659.8 L615.2,658.9 L619.0,657.8 L622.9,658.3 L626.7,650.5 L630.5,652.5 L634.3,645.8 L638.1,644.3 L641.9,640.7 L645.7,641.1 L649.5,642.2 L653.3,642.2 L657.1,646.1 L661.0,646.1 L664.8,644.7 L668.6,647.0 L672.4,644.3 L676.2,641.5 L680.0,639.3 L683.8,634.8 L687.6,632.0 L691.4,633.7 L695.2,642.7 L699.0,637.8 L702.9,645.4 L706.7,649.4 L710.5,645.6 L714.3,651.5 L718.1,654.2 L721.9,653.0 L725.7,655.7 L729.5,649.3 L733.3,643.8 L737.1,644.4 L741.0,640.2 L744.8,637.0 L748.6,638.3 L752.4,647.6 L756.2,641.1 L760.0,640.9 L763.8,639.3 L767.6,640.6 L771.4,639.4 L775.2,638.1 L779.0,635.6 L782.9,635.4 L786.7,638.8 L790.5,644.2 L794.3,650.5 L798.1,649.3 L801.9,650.1 L805.7,645.4 L809.5,641.4 L813.3,637.0 L817.1,638.6 L821.0,634.0 L824.8,639.6 L828.6,645.9 L832.4,643.6 L836.2,644.4 L840.0,639.4 L843.8,635.8 L847.6,638.0 L851.4,639.7 L855.2,645.0 L859.0,646.6 L862.9,638.8 L866.7,637.9 L870.5,637.9 L874.3,636.4 L878.1,634.2 L881.9,637.6 L885.7,638.9 L889.5,638.0 L893.3,633.5 L897.1,634.8 L901.0,631.7 L904.8,637.7 L908.6,633.8 L912.4,635.0 L916.2,634.8 L920.0,634.4 L923.8,633.3 L927.6,633.6 L931.4,643.9 L935.2,642.5 L939.0,643.6 L942.9,648.2 L946.7,643.1 L950.5,643.7 L954.3,642.8 L958.1,645.2 L961.9,643.2 L965.7,641.5 L969.5,639.2 L973.3,639.9 L977.1,640.1 L981.0,631.2 L984.8,634.2 L988.6,633.6 L992.4,632.6 L996.2,628.8 L1000.0,634.8 L1003.8,631.5 L1007.6,632.1 L1011.4,630.7 L1015.2,627.4 L1019.0,629.8 L1022.9,627.1 L1026.7,630.1 L1030.5,633.5 L1034.3,635.8 L1038.1,637.2 L1041.9,638.5 L1045.7,644.1 L1049.5,639.2 L1053.3,633.2 L1057.1,633.7 L1061.0,633.4 L1064.8,635.5 L1068.6,634.2 L1072.4,637.3 L1076.2,645.3 L1080.0,644.4 L1083.8,641.3 L1087.6,639.8 L1091.4,641.2 L1095.2,646.1 L1099.0,645.8 L1102.9,642.9 L1106.7,633.7 L1110.5,640.5 L1114.3,646.0 L1118.1,644.4 L1121.9,638.3 L1125.7,633.3 L1129.5,639.7 L1133.3,637.0 L1137.1,634.4 L1141.0,639.3 L1144.8,647.8 L1148.6,645.3 L1152.4,644.5 L1156.2,640.0 L1160.0,648.5 L1163.8,637.7 L1167.6,638.9 L1171.4,637.5 L1175.2,645.5 L1179.0,644.6 L1182.9,645.9 L1186.7,644.5 L1190.5,642.2 L1194.3,642.2 L1198.1,638.1 L1201.9,646.2 L1205.7,645.7 L1209.5,642.3 L1213.3,643.1 L1217.1,645.3 L1221.0,648.6 L1224.8,644.9 L1228.6,642.7 L1232.4,639.4 L1236.2,636.5 L1240.0,638.8 L1243.8,641.4 L1247.6,641.5 L1251.4,643.3 L1255.2,645.7 L1259.0,645.4 L1262.9,645.1 L1266.7,645.8 L1270.5,644.2 L1274.3,643.3 L1278.1,643.2 L1281.9,638.4 L1285.7,644.8 L1289.5,640.1 L1293.3,645.0 L1297.1,644.4 L1301.0,646.8 L1304.8,643.8 L1308.6,641.4 L1312.4,646.4 L1316.2,644.8 L1320.0,644.3 L1323.8,644.7 L1327.6,647.0 L1331.4,646.2 L1335.2,643.1 L1339.0,637.9 L1342.9,640.6 L1346.7,643.6 L1350.5,648.3 L1354.3,644.9 L1358.1,643.2 L1361.9,645.5 L1365.7,641.6 L1369.5,640.6 L1373.3,639.7 L1377.1,635.7 L1381.0,641.3 L1384.8,640.1 L1388.6,637.0 L1392.4,634.4 L1396.2,637.9 L1400.0,640.4 L1403.8,634.2 L1407.6,631.7 L1411.4,633.7 L1415.2,627.5 L1419.0,625.3 L1422.9,630.0 L1426.7,630.7 L1430.5,632.3 L1434.3,632.6 L1438.1,635.2 L1441.9,634.1 L1445.7,633.3 L1449.5,634.4 L1453.3,638.2 L1457.1,639.5 L1461.0,638.9 L1464.8,635.4 L1468.6,624.1 L1472.4,628.7 L1476.2,632.1 L1480.0,633.6 L1483.8,630.7 L1487.6,638.4 L1491.4,636.3 L1495.2,633.5 L1499.0,634.9 L1502.9,633.3 L1506.7,632.3 L1510.5,634.7 L1514.3,631.7 L1518.1,628.9 L1521.9,632.2 L1525.7,634.1 L1529.5,632.9 L1533.3,637.8 L1537.1,634.8 L1541.0,642.0 L1544.8,640.1 L1548.6,634.8 L1552.4,637.1 L1556.2,639.5 L1560.0,635.3" fill="none" stroke="#11abb0" stroke-width="1.6" opacity="0.90"/><path d="M40.0,840.0 L43.8,840.0 L47.6,840.0 L51.4,840.0 L55.2,840.0 L59.0,840.0 L62.9,840.0 L66.7,840.0 L70.5,840.0 L74.3,840.0 L78.1,840.0 L81.9,840.0 L85.7,840.0 L89.5,839.9 L93.3,839.3 L97.1,838.2 L101.0,836.6 L104.8,834.4 L108.6,831.7 L112.4,828.5 L116.2,824.9 L120.0,820.9 L123.8,816.5 L127.6,811.8 L131.4,806.9 L135.2,801.7 L139.0,796.3 L142.9,790.8 L146.7,785.3 L150.5,779.8 L154.3,774.3 L158.1,768.9 L161.9,763.7 L165.7,758.7 L169.5,754.0 L173.3,749.6 L177.1,745.5 L181.0,741.9 L184.8,738.7 L188.6,735.9 L192.4,733.7 L196.2,731.9 L200.0,730.8 L203.8,730.1 L207.6,730.0 L211.4,730.5 L215.2,731.5 L219.0,733.1 L222.9,735.2 L226.7,737.8 L230.5,740.9 L234.3,744.4 L238.1,748.4 L241.9,752.7 L245.7,757.4 L249.5,762.3 L253.3,767.4 L257.1,772.8 L261.0,778.2 L264.8,783.7 L268.6,789.3 L272.4,794.8 L276.2,800.2 L280.0,805.4 L283.8,810.5 L287.6,815.2 L291.4,819.7 L295.2,823.8 L299.0,827.5 L302.9,830.8 L306.7,833.7 L310.5,836.0 L314.3,837.8 L318.1,839.1 L321.9,839.8 L325.7,840.0 L329.5,840.0 L333.3,840.0 L337.1,840.0 L341.0,840.0 L344.8,840.0 L348.6,840.0 L352.4,840.0 L356.2,840.0 L360.0,840.0 L363.8,840.0 L367.6,840.0 L371.4,840.0 L375.2,840.0 L379.0,840.0 L382.9,840.0 L386.7,840.0 L390.5,840.0 L394.3,840.0 L398.1,840.0 L401.9,840.0 L405.7,840.0 L409.5,840.0 L413.3,840.0 L417.1,840.0 L421.0,840.0 L424.8,840.0 L428.6,840.0 L432.4,840.0 L436.2,840.0 L440.0,840.0 L443.8,840.0 L447.6,840.0 L451.4,840.0 L455.2,840.0 L459.0,840.0 L462.9,840.0 L466.7,840.0 L470.5,840.0 L474.3,840.0 L478.1,840.0 L481.9,840.0 L485.7,840.0 L489.5,840.0 L493.3,840.0 L497.1,840.0 L501.0,840.0 L504.8,840.0 L508.6,840.0 L512.4,840.0 L516.2,840.0 L520.0,840.0 L523.8,840.0 L527.6,840.0 L531.4,840.0 L535.2,840.0 L539.0,840.0 L542.9,840.0 L546.7,840.0 L550.5,840.0 L554.3,840.0 L558.1,840.0 L561.9,840.0 L565.7,839.8 L569.5,839.1 L573.3,837.8 L577.1,835.9 L581.0,833.6 L584.8,830.7 L588.6,827.4 L592.4,823.7 L596.2,819.6 L600.0,815.1 L603.8,810.3 L607.6,805.3 L611.4,800.0 L615.2,794.6 L619.0,789.1 L622.9,783.6 L626.7,778.0 L630.5,772.6 L634.3,767.3 L638.1,762.1 L641.9,757.2 L645.7,752.6 L649.5,748.3 L653.3,744.3 L657.1,740.8 L661.0,737.7 L664.8,735.2 L668.6,733.1 L672.4,731.5 L676.2,730.5 L680.0,730.0 L683.8,730.1 L687.6,730.8 L691.4,732.0 L695.2,733.7 L699.0,736.0 L702.9,738.7 L706.7,742.0 L710.5,745.6 L714.3,749.7 L718.1,754.1 L721.9,758.9 L725.7,763.9 L729.5,769.1 L733.3,774.5 L737.1,779.9 L741.0,785.5 L744.8,791.0 L748.6,796.5 L752.4,801.8 L756.2,807.0 L760.0,812.0 L763.8,816.7 L767.6,821.0 L771.4,825.0 L775.2,828.6 L779.0,831.8 L782.9,834.4 L786.7,836.6 L790.5,838.3 L794.3,839.4 L798.1,839.9 L801.9,840.0 L805.7,840.0 L809.5,840.0 L813.3,840.0 L817.1,840.0 L821.0,840.0 L824.8,840.0 L828.6,840.0 L832.4,840.0 L836.2,840.0 L840.0,840.0 L843.8,840.0 L847.6,840.0 L851.4,840.0 L855.2,840.0 L859.0,840.0 L862.9,840.0 L866.7,840.0 L870.5,840.0 L874.3,840.0 L878.1,840.0 L881.9,840.0 L885.7,840.0 L889.5,840.0 L893.3,840.0 L897.1,840.0 L901.0,840.0 L904.8,840.0 L908.6,840.0 L912.4,840.0 L916.2,840.0 L920.0,840.0 L923.8,840.0 L927.6,840.0 L931.4,840.0 L935.2,840.0 L939.0,840.0 L942.9,840.0 L946.7,840.0 L950.5,840.0 L954.3,840.0 L958.1,840.0 L961.9,840.0 L965.7,840.0 L969.5,840.0 L973.3,840.0 L977.1,840.0 L981.0,840.0 L984.8,840.0 L988.6,840.0 L992.4,840.0 L996.2,840.0 L1000.0,840.0 L1003.8,840.0 L1007.6,840.0 L1011.4,840.0 L1015.2,840.0 L1019.0,840.0 L1022.9,840.0 L1026.7,840.0 L1030.5,840.0 L1034.3,840.0 L1038.1,840.0 L1041.9,839.6 L1045.7,838.7 L1049.5,837.2 L1053.3,835.2 L1057.1,832.7 L1061.0,829.7 L1064.8,826.3 L1068.6,822.4 L1072.4,818.2 L1076.2,813.6 L1080.0,808.7 L1083.8,803.6 L1087.6,798.3 L1091.4,792.9 L1095.2,787.4 L1099.0,781.8 L1102.9,776.3 L1106.7,770.9 L1110.5,765.6 L1114.3,760.6 L1118.1,755.7 L1121.9,751.2 L1125.7,747.0 L1129.5,743.2 L1133.3,739.8 L1137.1,736.9 L1141.0,734.4 L1144.8,732.5 L1148.6,731.1 L1152.4,730.3 L1156.2,730.0 L1160.0,730.3 L1163.8,731.1 L1167.6,732.5 L1171.4,734.4 L1175.2,736.8 L1179.0,739.7 L1182.9,743.1 L1186.7,746.9 L1190.5,751.0 L1194.3,755.6 L1198.1,760.4 L1201.9,765.5 L1205.7,770.7 L1209.5,776.2 L1213.3,781.7 L1217.1,787.2 L1221.0,792.7 L1224.8,798.2 L1228.6,803.5 L1232.4,808.6 L1236.2,813.5 L1240.0,818.1 L1243.8,822.3 L1247.6,826.2 L1251.4,829.6 L1255.2,832.7 L1259.0,835.2 L1262.9,837.2 L1266.7,838.7 L1270.5,839.6 L1274.3,840.0 L1278.1,840.0 L1281.9,840.0 L1285.7,840.0 L1289.5,840.0 L1293.3,840.0 L1297.1,840.0 L1301.0,840.0 L1304.8,840.0 L1308.6,840.0 L1312.4,840.0 L1316.2,840.0 L1320.0,840.0 L1323.8,840.0 L1327.6,840.0 L1331.4,840.0 L1335.2,840.0 L1339.0,840.0 L1342.9,840.0 L1346.7,840.0 L1350.5,840.0 L1354.3,840.0 L1358.1,840.0 L1361.9,840.0 L1365.7,840.0 L1369.5,840.0 L1373.3,840.0 L1377.1,840.0 L1381.0,840.0 L1384.8,840.0 L1388.6,840.0 L1392.4,840.0 L1396.2,840.0 L1400.0,840.0 L1403.8,840.0 L1407.6,840.0 L1411.4,840.0 L1415.2,840.0 L1419.0,840.0 L1422.9,840.0 L1426.7,840.0 L1430.5,840.0 L1434.3,840.0 L1438.1,840.0 L1441.9,840.0 L1445.7,840.0 L1449.5,840.0 L1453.3,840.0 L1457.1,840.0 L1461.0,840.0 L1464.8,840.0 L1468.6,840.0 L1472.4,840.0 L1476.2,840.0 L1480.0,840.0 L1483.8,840.0 L1487.6,840.0 L1491.4,840.0 L1495.2,840.0 L1499.0,840.0 L1502.9,840.0 L1506.7,840.0 L1510.5,840.0 L1514.3,839.9 L1518.1,839.4 L1521.9,838.3 L1525.7,836.7 L1529.5,834.5 L1533.3,831.9 L1537.1,828.7 L1541.0,825.1 L1544.8,821.2 L1548.6,816.8 L1552.4,812.1 L1556.2,807.2 L1560.0,802.0" fill="none" stroke="#f06000" stroke-width="3.5"/><path d="M40.0,834.8 L43.8,840.7 L47.6,841.0 L51.4,838.7 L55.2,836.5 L59.0,838.6 L62.9,842.6 L66.7,839.0 L70.5,837.0 L74.3,842.5 L78.1,844.5 L81.9,838.3 L85.7,838.4 L89.5,835.8 L93.3,837.9 L97.1,839.1 L101.0,836.9 L104.8,836.8 L108.6,834.2 L112.4,830.1 L116.2,826.6 L120.0,817.8 L123.8,821.6 L127.6,813.6 L131.4,810.9 L135.2,799.5 L139.0,798.8 L142.9,796.0 L146.7,787.2 L150.5,784.7 L154.3,781.6 L158.1,770.2 L161.9,768.3 L165.7,760.5 L169.5,758.2 L173.3,755.5 L177.1,754.0 L181.0,754.8 L184.8,746.0 L188.6,745.7 L192.4,741.7 L196.2,742.4 L200.0,743.6 L203.8,744.0 L207.6,738.4 L211.4,736.9 L215.2,743.0 L219.0,741.9 L222.9,740.7 L226.7,750.3 L230.5,751.5 L234.3,757.2 L238.1,753.1 L241.9,760.0 L245.7,766.5 L249.5,774.8 L253.3,774.5 L257.1,775.4 L261.0,784.5 L264.8,789.8 L268.6,791.2 L272.4,802.3 L276.2,802.9 L280.0,805.7 L283.8,814.7 L287.6,819.1 L291.4,819.6 L295.2,824.4 L299.0,828.1 L302.9,829.6 L306.7,832.1 L310.5,837.9 L314.3,838.7 L318.1,836.3 L321.9,835.1 L325.7,834.9 L329.5,842.6 L333.3,836.4 L337.1,837.6 L341.0,840.2 L344.8,838.5 L348.6,837.4 L352.4,834.3 L356.2,843.6 L360.0,838.1 L363.8,840.6 L367.6,840.8 L371.4,836.4 L375.2,837.4 L379.0,843.4 L382.9,841.0 L386.7,839.4 L390.5,844.7 L394.3,837.3 L398.1,840.4 L401.9,839.6 L405.7,839.0 L409.5,834.2 L413.3,840.0 L417.1,841.3 L421.0,834.4 L424.8,841.7 L428.6,841.8 L432.4,844.6 L436.2,836.6 L440.0,839.2 L443.8,838.6 L447.6,839.6 L451.4,840.5 L455.2,842.7 L459.0,842.6 L462.9,838.7 L466.7,839.7 L470.5,834.8 L474.3,842.6 L478.1,841.7 L481.9,843.4 L485.7,835.6 L489.5,844.1 L493.3,837.6 L497.1,835.4 L501.0,840.6 L504.8,837.7 L508.6,847.0 L512.4,841.4 L516.2,845.5 L520.0,839.5 L523.8,840.1 L527.6,842.6 L531.4,837.0 L535.2,838.9 L539.0,841.8 L542.9,841.8 L546.7,844.9 L550.5,840.7 L554.3,833.1 L558.1,842.1 L561.9,838.0 L565.7,840.5 L569.5,835.1 L573.3,835.0 L577.1,835.5 L581.0,838.5 L584.8,831.8 L588.6,823.3 L592.4,824.7 L596.2,818.2 L600.0,817.8 L603.8,818.1 L607.6,806.1 L611.4,801.8 L615.2,799.9 L619.0,794.3 L622.9,787.3 L626.7,785.2 L630.5,777.3 L634.3,774.4 L638.1,776.8 L641.9,765.2 L645.7,762.6 L649.5,759.5 L653.3,752.0 L657.1,751.8 L661.0,745.7 L664.8,741.6 L668.6,742.8 L672.4,747.0 L676.2,743.4 L680.0,737.6 L683.8,741.5 L687.6,743.9 L691.4,742.6 L695.2,742.2 L699.0,745.0 L702.9,746.2 L706.7,753.9 L710.5,755.4 L714.3,758.9 L718.1,762.1 L721.9,773.1 L725.7,771.4 L729.5,779.7 L733.3,775.6 L737.1,779.9 L741.0,784.4 L744.8,792.2 L748.6,801.3 L752.4,801.3 L756.2,809.7 L760.0,811.5 L763.8,820.6 L767.6,823.4 L771.4,823.5 L775.2,822.5 L779.0,831.1 L782.9,826.1 L786.7,826.4 L790.5,841.1 L794.3,838.1 L798.1,842.0 L801.9,839.9 L805.7,841.6 L809.5,840.2 L813.3,836.9 L817.1,837.0 L821.0,839.2 L824.8,840.0 L828.6,839.7 L832.4,839.6 L836.2,838.2 L840.0,840.0 L843.8,838.4 L847.6,844.3 L851.4,837.5 L855.2,834.3 L859.0,839.5 L862.9,844.7 L866.7,835.6 L870.5,841.1 L874.3,849.8 L878.1,840.8 L881.9,838.1 L885.7,838.8 L889.5,836.0 L893.3,838.0 L897.1,839.6 L901.0,846.5 L904.8,843.7 L908.6,839.5 L912.4,837.8 L916.2,843.4 L920.0,842.0 L923.8,838.5 L927.6,846.3 L931.4,846.4 L935.2,840.8 L939.0,839.2 L942.9,841.6 L946.7,847.5 L950.5,840.0 L954.3,844.4 L958.1,837.9 L961.9,840.4 L965.7,839.2 L969.5,837.9 L973.3,841.8 L977.1,837.3 L981.0,836.0 L984.8,838.7 L988.6,835.7 L992.4,842.1 L996.2,837.0 L1000.0,839.2 L1003.8,843.3 L1007.6,840.3 L1011.4,841.8 L1015.2,841.8 L1019.0,839.8 L1022.9,836.6 L1026.7,841.0 L1030.5,839.5 L1034.3,844.4 L1038.1,838.8 L1041.9,834.6 L1045.7,834.7 L1049.5,834.4 L1053.3,835.8 L1057.1,835.1 L1061.0,829.5 L1064.8,830.5 L1068.6,826.8 L1072.4,815.9 L1076.2,817.9 L1080.0,804.7 L1083.8,810.7 L1087.6,799.9 L1091.4,800.3 L1095.2,791.0 L1099.0,790.0 L1102.9,781.6 L1106.7,777.4 L1110.5,773.7 L1114.3,766.0 L1118.1,758.5 L1121.9,761.3 L1125.7,752.8 L1129.5,752.0 L1133.3,749.3 L1137.1,739.5 L1141.0,751.6 L1144.8,745.0 L1148.6,747.5 L1152.4,741.8 L1156.2,741.3 L1160.0,728.3 L1163.8,740.4 L1167.6,736.9 L1171.4,740.2 L1175.2,748.0 L1179.0,747.6 L1182.9,746.7 L1186.7,755.0 L1190.5,758.6 L1194.3,761.6 L1198.1,772.5 L1201.9,774.7 L1205.7,775.7 L1209.5,779.8 L1213.3,789.5 L1217.1,792.5 L1221.0,796.7 L1224.8,801.6 L1228.6,803.6 L1232.4,810.1 L1236.2,814.2 L1240.0,823.5 L1243.8,826.1 L1247.6,825.0 L1251.4,834.4 L1255.2,830.9 L1259.0,836.2 L1262.9,838.5 L1266.7,835.2 L1270.5,840.6 L1274.3,841.9 L1278.1,841.8 L1281.9,839.7 L1285.7,831.0 L1289.5,847.0 L1293.3,840.1 L1297.1,840.8 L1301.0,836.9 L1304.8,841.3 L1308.6,848.2 L1312.4,835.7 L1316.2,843.6 L1320.0,840.3 L1323.8,844.5 L1327.6,843.7 L1331.4,841.7 L1335.2,837.3 L1339.0,837.3 L1342.9,842.0 L1346.7,838.4 L1350.5,841.3 L1354.3,839.7 L1358.1,839.6 L1361.9,838.0 L1365.7,842.1 L1369.5,840.5 L1373.3,839.4 L1377.1,839.8 L1381.0,842.7 L1384.8,834.4 L1388.6,841.6 L1392.4,837.6 L1396.2,839.4 L1400.0,836.1 L1403.8,847.3 L1407.6,833.4 L1411.4,840.8 L1415.2,844.1 L1419.0,839.7 L1422.9,832.7 L1426.7,838.4 L1430.5,844.1 L1434.3,841.6 L1438.1,835.7 L1441.9,844.7 L1445.7,840.7 L1449.5,841.1 L1453.3,833.0 L1457.1,841.1 L1461.0,835.8 L1464.8,842.3 L1468.6,842.7 L1472.4,836.8 L1476.2,838.1 L1480.0,845.8 L1483.8,838.0 L1487.6,838.0 L1491.4,842.1 L1495.2,839.4 L1499.0,839.2 L1502.9,841.6 L1506.7,841.8 L1510.5,841.7 L1514.3,839.9 L1518.1,842.5 L1521.9,837.1 L1525.7,840.4 L1529.5,833.3 L1533.3,831.4 L1537.1,831.8 L1541.0,822.4 L1544.8,815.3 L1548.6,817.9 L1552.4,827.5 L1556.2,820.0 L1560.0,825.0" fill="none" stroke="#ffffff" stroke-width="2" stroke-dasharray="6 5" opacity="0.8"/></svg>